<?xml version="1.0" encoding="UTF-8"?>
<!DOCTYPE svg PUBLIC "-//W3C//DTD SVG 1.1//EN" "http://www.w3.org/Graphics/SVG/1.1/DTD/svg11.dtd">
<!-- Creator: CorelDRAW X8 -->
<svg xmlns="http://www.w3.org/2000/svg" xml:space="preserve" width="26.7726mm" height="30.4177mm" version="1.1" style="shape-rendering:geometricPrecision; text-rendering:geometricPrecision; image-rendering:optimizeQuality; fill-rule:evenodd; clip-rule:evenodd"
viewBox="0 0 373 424"
 xmlns:xlink="http://www.w3.org/1999/xlink">
 <defs>
  <style type="text/css">
   <![CDATA[
    .fil0 {fill:#FF5C94;fill-rule:nonzero}
   ]]>
  </style>
 </defs>
 <g id="Слой_x0020_1">
  <metadata id="CorelCorpID_0Corel-Layer"/>
  <path class="fil0" d="M19 194c0,0 12,-42 57,-65 22,-11 40,-21 53,-31 13,-9 20,-18 20,-27 1,-20 -19,-57 -19,-58 -1,-2 -1,-5 2,-7 0,0 1,0 1,0 0,0 52,-18 90,8 18,13 31,27 38,42 8,16 9,34 6,51 -3,15 -15,28 -29,37 -18,11 -41,18 -59,20 -108,13 -152,36 -152,36 -3,1 -6,0 -7,-2 -1,-1 -1,-3 -1,-4zm269 -50c-10,8 -39,30 -65,40 -21,7 -59,10 -92,13 -19,1 -36,2 -47,4 -16,3 -27,6 -36,9 -7,3 -11,6 -14,10 -2,3 -3,7 -4,10 22,-2 20,0 37,7 5,-4 16,-9 27,-9 18,0 15,5 27,8 5,1 10,-2 13,-4 8,-5 17,-6 26,-6 13,1 17,7 27,7 12,1 13,-3 25,-6 9,-1 14,-1 22,4 3,2 6,3 10,4 5,0 10,-3 16,-5 5,-2 9,-5 14,-5 5,0 11,3 17,6 6,2 11,5 14,5 3,0 10,-9 20,-10 7,-1 15,0 20,0 1,-6 1,-18 -5,-31 -9,-18 -41,-43 -52,-51zm-69 30c30,-10 62,-38 65,-41 2,-1 5,-2 7,0 0,0 47,34 58,57 11,22 6,41 5,43 0,3 -3,4 -5,4 0,0 -13,-1 -23,0 -9,0 -11,9 -22,9 -5,0 -11,-3 -17,-6 -5,-2 -11,-4 -13,-4 -2,0 -6,2 -10,3 -6,3 -14,7 -20,6 -8,-1 -12,-3 -15,-5 -6,-3 -8,-4 -15,-2 -12,2 -14,6 -28,6 -11,-1 -14,-7 -26,-7 -7,-1 -15,0 -20,4 -6,3 -12,7 -21,5 -12,-3 -9,-7 -25,-8 -10,0 -23,9 -23,9 -1,2 -3,2 -5,1 -22,-7 -14,-11 -42,-7 0,0 0,0 -1,0 -3,0 -5,-3 -5,-6 0,0 1,-12 8,-21 3,-5 9,-10 19,-14 8,-3 21,-6 37,-9 12,-2 29,-3 48,-5 32,-3 69,-6 89,-12zm-138 -36c-27,14 -41,35 -47,48 20,-8 65,-23 144,-32 17,-2 38,-8 54,-19 13,-8 22,-18 25,-30 3,-15 1,-30 -5,-44 -7,-14 -18,-27 -35,-38 -26,-18 -61,-12 -75,-9 6,12 19,40 18,58 -1,12 -10,23 -24,34 -14,11 -33,21 -55,32z"/>
  <path class="fil0" d="M91 413c5,0 42,0 82,0l14 0 0 0 13 0c40,0 77,0 82,0 9,-16 82,-149 81,-149 0,-1 -2,-1 -6,-2 -5,-1 -10,-1 -16,0 -11,2 -16,8 -24,18l-2 3c-5,6 -18,40 -28,69 -8,24 -16,44 -16,45 -1,2 -4,4 -6,3 -3,-1 -4,-4 -4,-7 0,0 7,-19 15,-43 10,-27 20,-57 21,-63 0,-1 0,-1 0,-2l0 0c1,-4 0,-8 -2,-11 -2,-4 -6,-6 -12,-7 -1,0 -2,-1 -3,-1 -8,-1 -13,1 -16,4 -4,4 -6,10 -9,16 -4,12 -21,92 -24,108l-1 2c0,3 -3,5 -6,5 -3,-1 -4,-4 -4,-7 0,0 17,-84 19,-102 1,-8 -1,-15 -4,-20 -3,-4 -8,-7 -13,-8 -5,-1 -12,0 -17,3l0 0c-5,3 -8,7 -10,12 -5,16 -3,108 -3,114l0 0c1,3 -2,5 -5,6 0,0 0,0 0,-1 -1,1 -1,1 -1,1 -3,-1 -5,-3 -5,-6l0 0c0,-6 2,-98 -3,-114 -2,-5 -5,-9 -10,-12l0 0c-5,-3 -12,-4 -17,-3 -5,1 -10,4 -13,8 -3,5 -4,12 -4,20 2,18 19,102 19,102 1,3 -1,6 -4,7 -3,0 -6,-2 -6,-5l-1 -2c-3,-16 -20,-96 -24,-108 -3,-6 -5,-12 -9,-16 -3,-3 -8,-5 -16,-4 -1,0 -2,1 -3,1 -6,1 -10,3 -12,7 -2,3 -2,7 -2,11l0 0c0,1 0,1 0,2 1,6 12,36 21,63 8,24 15,43 15,43 1,3 -1,6 -4,7 -2,1 -5,-1 -6,-3 0,-1 -7,-21 -15,-45 -11,-29 -24,-63 -29,-69l-2 -3c-8,-10 -13,-16 -24,-18 -6,-1 -11,-1 -15,0 -5,1 -6,1 -7,2 0,1 72,133 81,149zm96 11l0 0c-5,0 -9,0 -14,0 -37,0 -72,-1 -85,-2 -2,0 -4,-1 -5,-3 -1,0 -85,-154 -83,-159 1,-3 7,-7 15,-8 5,-1 12,-1 19,0 15,2 21,9 30,22l2 2c1,-3 2,-5 3,-8 4,-5 10,-10 20,-12 0,0 1,0 3,0 12,-1 19,2 25,7 4,4 6,8 8,13 1,-3 3,-6 4,-9 5,-8 12,-12 21,-14 7,-1 16,1 23,5l1 0c5,3 10,8 13,14 2,-6 7,-11 13,-14l0 0c7,-4 16,-6 23,-5 9,2 16,6 21,14 2,3 3,6 4,9 2,-5 5,-9 8,-13 6,-5 14,-8 26,-7 1,0 2,0 3,0 10,2 16,7 19,12 2,3 3,5 3,8l2 -2c10,-13 15,-20 31,-22 7,-1 13,-1 18,0 8,1 14,5 15,8 2,5 -82,159 -82,159 -2,2 -4,3 -6,3 -13,1 -48,2 -85,2 -4,0 -9,0 -13,0z"/>
 </g>
</svg>
