<?xml version="1.0" encoding="UTF-8"?>
<!DOCTYPE svg PUBLIC "-//W3C//DTD SVG 1.1//EN" "http://www.w3.org/Graphics/SVG/1.1/DTD/svg11.dtd">
<!-- Creator: CorelDRAW X8 -->
<svg xmlns="http://www.w3.org/2000/svg" xml:space="preserve" width="52.7511mm" height="28.2699mm" version="1.1" style="shape-rendering:geometricPrecision; text-rendering:geometricPrecision; image-rendering:optimizeQuality; fill-rule:evenodd; clip-rule:evenodd"
viewBox="0 0 4545 2436"
 xmlns:xlink="http://www.w3.org/1999/xlink">
 <defs>
  <style type="text/css">
   <![CDATA[
    .fil0 {fill:#FFC250;fill-rule:nonzero}
   ]]>
  </style>
 </defs>
 <g id="Слой_x0020_1">
  <metadata id="CorelCorpID_0Corel-Layer"/>
  <path class="fil0" d="M2171 1506c-14,-23 -30,-52 -44,-83 -18,-41 -31,-87 -33,-133 -2,-85 17,-169 30,-216 0,-1 1,-3 1,-4l2 -7 -296 -143 -30 66 0 1 0 1 0 0 -90 200 172 78c17,7 24,26 16,42 -6,15 -22,22 -37,18l-137 -34 13 129c71,21 149,40 232,56 64,12 131,22 201,29zm985 287c12,32 19,61 16,87 -6,48 -63,119 -118,186 -46,57 -90,112 -88,119 10,25 39,24 39,24 17,0 32,14 32,32 0,4 -1,7 -2,11 -3,11 -17,73 20,97l1 1c2,2 5,3 7,4 25,13 61,20 96,16 32,-3 62,-16 79,-42 2,-3 3,-5 4,-7 19,-36 14,-78 7,-134 -7,-53 -15,-117 -7,-201 7,-73 28,-172 47,-270 5,-23 10,-47 15,-70l0 -3c11,-56 21,-110 27,-153 5,-39 7,-69 4,-88l0 -1 0 -1 0 -1 -1 -1 0 0 0 -2 0 -1 -1 0 0 -1 0 0 0 -1 0 0 0 -1 0 -1 0 0 -1 0 0 -1 0 -1 0 -1 0 0 0 0 -1 -1 0 -1 0 0 0 -1 0 0 0 -1 -1 0 0 -1 0 0 0 -1 0 0 0 -1 -1 -1 0 0 0 0 0 -1c-3,-8 -6,-16 -9,-23 -6,-13 -13,-25 -21,-35l-1 -1c-17,-22 -39,-37 -62,-45 -20,-7 -40,-8 -60,-4 -20,4 -39,14 -56,29 -33,31 -58,82 -63,157 0,1 0,2 -1,3 0,11 -1,23 -1,35l0 1 0 1c0,16 1,32 3,49l0 1 0 0 1 4 0 1 0 1 0 0 0 1 0 1 0 4c5,40 31,92 55,142l1 1 1 2 0 0 0 1 1 2 0 0 1 1 1 1 0 1 0 1 1 1 0 1 1 1 0 1 1 1 0 1 1 1 0 1 0 0 1 2 1 1 0 0 1 2 0 1 0 0 1 1 1 2 0 0 0 1 1 2 0 0 1 1 0 2 1 0 0 1 1 1 0 1 0 1 1 1 1 1 0 1 0 1 1 1 0 0 1 2 0 1 0 0 1 2 1 1 0 0 0 1 1 2 0 0 1 1 0 1 0 1 1 1 0 1 1 1 0 1 1 2 0 0 1 3 0 0 3 6 0 0 1 2 0 1 3 6 0 0c1,4 3,7 4,11 1,1 1,2 1,3zm-162 -239c-2,-18 -3,-35 -3,-51 -230,74 -488,91 -730,75 -8,0 -17,-1 -25,-2l-2 0c-95,-7 -188,-20 -276,-36 -94,-18 -181,-39 -259,-64 -1,0 -2,0 -3,-1 -88,-28 -164,-59 -223,-91 -212,-115 -357,-239 -543,-397 -94,-80 -198,-168 -324,-267 -91,-71 -168,-102 -227,-126 -58,-24 -101,-41 -127,-81 -23,-33 -45,-67 -67,-91 -17,-20 -33,-34 -45,-34 -13,-1 -18,9 -18,22 -2,29 10,69 17,95 2,7 4,13 6,18 4,17 -6,34 -21,39 -11,4 -61,25 -60,31 0,0 0,0 0,0l1 1c5,7 16,15 31,20 15,7 33,10 46,7 4,-1 6,-2 9,-3 41,-25 71,-53 72,-53 8,-9 20,-12 31,-9 16,4 103,25 205,108 44,36 110,106 189,190 117,124 265,280 410,401 40,33 86,74 136,118 234,208 549,488 913,532 159,20 331,32 503,16 161,-14 323,-53 475,-133 -3,-7 -7,-13 -10,-20l0 -1 -1 -1 0 0 0 -1 -1 -1 0 -1 0 0 0 -1 -1 -1 0 0 0 -1 -1 -1 0 -1 0 0 -1 -1 0 0 -1 -1 0 0 0 -1 0 -1 -1 -1 0 0 0 -1 -1 -1 0 -1 0 0 -1 -1 0 -1 0 0 -1 -1 0 -1 -1 -1 0 0 0 -1 0 0 -1 -1 0 0 0 -1 -1 -1 0 -1 0 0 -1 -1 0 -1 -1 -1 0 0 0 -1 -1 -1 0 0 0 -1 -1 -1 0 -1 0 0 0 -1 -1 -1 0 -1c-28,-55 -56,-112 -62,-162l0 -1 0 -1 0 -1 0 -1 0 -1 0 -1 0 -1 -1 -1 0 0 0 -1 0 0 0 -1 0 -1 0 -1 0 -1zm0 -120c10,-84 41,-144 82,-181 14,-13 28,-23 44,-30 -13,-7 -24,-13 -34,-18 -36,-1 -179,-6 -207,-50 -31,-48 28,-87 78,-120 15,-10 30,1 31,-7 -1,-19 -1,-38 0,-58 -23,-10 -62,-27 -104,-42 -27,-11 -97,-4 -171,12 -76,16 -154,41 -196,67 -1,1 -1,1 -2,2 -24,15 -57,28 -94,41 -2,1 -5,2 -7,2 -86,28 -190,49 -233,57 -11,44 -24,111 -22,179 1,37 12,75 27,110 23,52 53,96 67,115l12 1c243,16 502,-3 729,-80zm374 -125c3,5 6,10 8,15l0 0 1 2 0 0 1 1 0 0 0 0 0 1 0 0 0 0 1 1 0 0 0 1 0 1 1 0 0 1 0 0 0 1 1 1 0 1 1 0 0 1 0 0 0 1 1 1 0 1 0 0 0 1 1 0 0 1 0 1 1 1 0 0 0 0 1 4 0 0 0 0 0 0c2,4 3,8 4,12l0 0 1 3 0 1 1 0 0 3 1 0 0 1 0 2 1 1 0 1 0 0 0 1 0 1 1 1 0 1 0 0 0 1 0 0 1 1 0 1 0 1 0 0 1 4 1 2 0 1c5,26 3,65 -3,112 -2,17 -5,35 -8,54 0,0 3,-3 3,-3 25,-28 49,-57 72,-89 222,-296 360,-522 473,-705 30,-49 58,-94 85,-138 -67,93 -142,191 -226,288 -2,4 -4,8 -6,11l-1 2 0 2 -1 1 -1 1 0 0 -1 2 -1 2 -2 3 0 0 -1 2 -1 2 0 0 -3 4 0 1c-17,27 -37,53 -59,78 -27,31 -58,62 -90,90l0 0c-42,38 -85,71 -121,99l-1 1 -1 0 0 1 -2 1 -1 1 -3 2 -1 1 -2 1 -1 1 0 0 -1 1 -1 1 -1 0 -1 1 -1 1 0 0 -2 1 -1 1 -1 1 -1 0 0 0 -1 1 -1 1 -1 1 -1 1 0 0 -1 0 -1 1 -1 1 -1 1 -1 0 0 0 -1 1 -1 1 -1 1 -1 0 -1 1 0 0 -1 1 -1 1 -1 0 -1 1 0 0 -1 1 -1 1 -1 0 -1 1 0 0 -1 0 0 1 0 0 -1 0c-7,6 -15,12 -23,17 -16,13 -31,25 -46,36l-23 17zm-3 357c-4,21 -8,42 -12,63 -20,96 -40,193 -47,263 -7,76 1,136 7,187 8,67 14,118 -14,172 -2,5 -5,9 -7,13 -29,43 -76,65 -126,70 -47,6 -97,-4 -133,-23 -4,-2 -8,-4 -11,-6l-3 -2c-53,-35 -56,-97 -52,-136 -22,-7 -48,-24 -61,-60 -15,-41 40,-110 98,-182 49,-60 100,-123 103,-152 1,-7 1,-15 -1,-23 -157,81 -324,120 -491,135 -177,16 -353,4 -516,-16 -384,-47 -707,-334 -948,-548 -47,-42 -91,-81 -134,-116 -148,-123 -297,-281 -416,-407 -78,-82 -143,-151 -183,-184 -74,-61 -137,-84 -164,-91 -15,12 -40,32 -70,50 -9,5 -18,9 -28,11 -27,6 -58,1 -85,-10 -26,-10 -48,-27 -61,-46l-1 -2c-4,-6 -6,-13 -8,-19 -9,-43 41,-77 74,-93 -9,-30 -19,-71 -18,-107 2,-49 23,-86 85,-83 33,1 63,23 92,55 25,29 48,64 72,98l0 1c15,23 49,37 97,56 62,25 145,58 243,136 120,94 218,177 307,252 -6,-107 -11,-291 26,-337 3,-4 6,-7 8,-9 27,-27 62,-35 100,-26 33,7 67,25 101,52 14,11 27,23 40,36 53,53 67,153 69,220 80,-59 201,-137 267,-129 74,9 157,114 202,178l20 -44c8,-16 27,-23 43,-15l277 133c-17,-53 -29,-119 2,-154 2,-3 4,-5 7,-7 15,-14 38,-25 64,-32 -13,-38 -26,-100 -5,-158 16,-45 48,-69 86,-81 45,-14 98,-7 139,4 41,11 73,40 92,81 17,37 23,85 17,140 -7,57 3,120 12,159 49,-22 116,-43 180,-56 85,-18 168,-24 207,-10 38,14 73,29 97,40 21,-45 58,-86 85,-115 -30,-12 -61,-34 -58,-83 1,-6 2,-13 5,-20 11,-33 44,-73 79,-104 37,-34 80,-58 104,-57 4,1 7,1 10,2l0 1c23,7 33,25 42,43 4,8 9,16 16,14l2 -1 0 0 4 -2 4 -2 2 -1c75,-34 163,-46 246,-35 84,12 164,48 221,108l8 8c2,3 5,6 8,10 24,31 37,64 41,97 170,-212 303,-420 380,-541 28,-45 49,-78 63,-97 44,-58 83,-98 115,-117 15,-8 29,-13 42,-15 16,-1 31,3 44,12 7,6 13,12 18,20 23,39 15,93 8,120 27,33 85,114 28,177 -72,80 -168,-35 -181,-52 -5,-5 -8,-12 -8,-19 0,0 2,31 -123,196 -73,96 -139,205 -219,335 -113,184 -253,411 -476,710 -24,33 -50,64 -76,93 -24,26 -48,51 -73,74zm-904 -701c-10,-40 -26,-123 -17,-198 5,-44 0,-80 -12,-106 -11,-24 -28,-40 -50,-46 -32,-9 -72,-14 -104,-4 -19,6 -35,18 -43,41 -17,46 -2,99 9,127 3,0 6,0 9,0 54,-2 109,10 136,34l2 2c2,1 3,2 4,4 30,33 40,107 43,156 8,-3 16,-6 23,-10zm-231 -121c-2,1 -4,1 -5,1 -29,3 -54,11 -67,23l-2 1c-26,30 33,150 39,162l0 0 0 0c0,1 1,2 1,2l0 0c1,2 1,3 2,5l0 0c0,1 0,1 0,2 45,-9 115,-24 177,-43 -1,-37 -6,-111 -27,-135l-1 -1c-15,-13 -53,-19 -93,-18 -8,0 -16,1 -24,1zm825 112c0,6 -3,36 -3,55 0,23 3,45 9,64 5,20 13,37 24,49 0,-13 4,-28 10,-41 5,-12 13,-25 22,-35 16,-17 35,-28 56,-28l0 0c22,1 65,16 108,36l0 0c-9,-23 -11,-47 -4,-63 1,-2 2,-4 4,-6 1,-2 3,-3 4,-5 16,-16 40,-14 68,-12 20,2 42,4 49,0 34,-19 56,-7 51,-14l0 0c-2,-4 -7,0 -17,-3 -15,-5 -31,-10 -46,-19 -65,-36 -71,-105 -76,-161l-1 -13c-2,-31 -30,-79 -46,-103 -27,-4 -40,-29 -53,-53 -2,-5 -3,-8 -3,-11 -10,4 -31,20 -53,40 -28,25 -54,55 -61,76 -1,2 -1,3 -1,4 -1,14 24,22 38,26 14,4 24,7 32,16 21,25 3,45 -25,76 -29,31 -76,82 -86,125zm-58 130l-5 3c-25,17 -62,26 -59,31 7,10 46,15 84,18 -8,-14 -14,-29 -18,-45 -1,-3 -2,-5 -2,-7zm-1764 -179c1,-42 2,-171 -51,-224 -11,-11 -23,-21 -34,-30 -26,-21 -52,-35 -74,-40 -17,-4 -31,-2 -41,9 -2,1 -3,3 -4,3l0 0c-31,40 -13,294 -8,355l8 6 26 22c9,-17 22,-37 41,-52 30,-24 84,-29 116,-30 2,-2 4,-5 7,-7l2 -2 0 0 0 0 1 -1 0 0 0 0 0 0 0 0c2,-2 6,-5 11,-9zm53 40l-2 1 -13 12 -2 5 0 2c-4,27 -8,78 2,88 6,6 46,22 98,43 27,-17 86,-51 137,-50 48,2 114,60 153,99l76 -171c-28,-43 -116,-175 -178,-183 -61,-7 -211,106 -271,154zm-83 44c-23,1 -52,4 -67,16 -15,12 -24,30 -30,44 126,104 245,193 398,276 46,25 102,50 167,72l-13 -126c-49,-18 -185,-66 -291,-108 -3,-1 -6,-2 -9,-4 -67,-26 -120,-49 -131,-59 -22,-21 -26,-72 -24,-111zm405 195c-32,-32 -78,-73 -104,-73 -17,-1 -38,6 -57,14 56,21 114,43 161,59zm1804 -35c7,11 12,23 13,34l0 0 1 -1 1 -1 0 0 1 0 1 -1 1 -1 1 -1 1 0 0 0 1 -1 1 -1 1 -1 1 0 1 0 1 -1 1 -1 1 -1 0 0 1 -1 1 0 1 -1 1 -1 1 -1 0 0 1 -1 1 -1 1 0 2 -1 0 0 1 -1 1 -1 1 -1 1 0 0 -1 1 0 1 -1 1 -1 1 -1 1 0 1 -1 1 -1 1 0 1 -1 1 -1 0 0 1 -1 2 -1c28,-22 60,-47 93,-74l-5 -5c-14,-14 -21,-29 -27,-43 -3,-6 -6,-11 -8,-13 -2,-2 -2,10 -28,35 -8,7 -14,22 -20,36 -9,19 -17,37 -32,49 -8,7 -18,11 -28,12zm-86 5c-51,-36 -127,-70 -155,-71l-6 6c-4,5 -8,11 -11,18 -3,7 -5,13 -5,18 0,2 -2,1 -1,2 9,8 72,34 132,50 36,9 67,14 78,9 3,-1 4,0 4,-1 1,-2 -3,1 -4,-1 -7,-9 -18,-19 -32,-30zm37 -530l3 3c8,9 15,17 22,22 7,7 31,10 56,13 17,3 35,5 51,9 44,10 64,56 82,98 7,18 14,34 20,42 10,11 18,18 29,22 11,5 27,8 48,10 27,3 52,9 70,15 22,-52 22,-103 -13,-148l-5 -6 -6 -6c-48,-50 -114,-79 -184,-89 -58,-8 -118,-3 -173,15zm5 88c5,14 8,27 10,40l1 13c3,42 8,91 42,111 10,5 23,10 35,14 23,7 43,14 54,32 6,12 8,24 1,37 24,-9 41,-2 56,13 8,9 13,19 19,31 4,9 9,19 15,25l7 7c21,-20 42,-42 61,-63 16,-19 31,-38 43,-57 -13,-3 -28,-6 -45,-8 -27,-3 -48,-7 -67,-15 -20,-8 -36,-21 -52,-40 -12,-15 -21,-35 -31,-58 -12,-27 -24,-58 -36,-61 -14,-3 -30,-5 -45,-7 -25,-3 -48,-6 -68,-14zm63 313c-23,12 -55,10 -83,8 -3,0 -5,-1 -7,-2 5,12 12,25 18,31l1 0c9,7 25,18 38,22 2,1 -1,5 1,4 4,-3 9,-15 14,-27l0 0c5,-12 11,-24 18,-36zm-96 1c-1,-1 -2,-1 -3,-1 1,0 2,0 3,1zm-218 -230l0 1c0,1 0,1 0,2 5,4 7,5 0,-3l0 0zm0 0c-2,-2 -1,-1 0,1l0 -1zm-3053 -205l0 0 0 0zm4104 -192c178,-230 217,-186 226,-159 13,16 58,67 79,44 30,-34 -39,-102 -39,-102 -9,-10 -12,-24 -7,-36 4,-12 17,-58 2,-83l0 0c-4,0 -9,2 -15,6 -25,15 -58,49 -96,100 -11,14 -32,47 -61,92 -24,39 -54,85 -89,138zm260 -337l0 0c0,-1 0,0 0,0z"/>
 </g>
</svg>
