<?xml version="1.0" encoding="UTF-8"?>
<!DOCTYPE svg PUBLIC "-//W3C//DTD SVG 1.1//EN" "http://www.w3.org/Graphics/SVG/1.1/DTD/svg11.dtd">
<!-- Creator: CorelDRAW X8 -->
<svg xmlns="http://www.w3.org/2000/svg" xml:space="preserve" width="25.1913mm" height="5.9267mm" version="1.1" style="shape-rendering:geometricPrecision; text-rendering:geometricPrecision; image-rendering:optimizeQuality; fill-rule:evenodd; clip-rule:evenodd"
viewBox="0 0 606 143"
 xmlns:xlink="http://www.w3.org/1999/xlink">
 <defs>
  <style type="text/css">
   <![CDATA[
    .fil0 {fill:black;fill-rule:nonzero}
    .fil1 {fill:#960000;fill-rule:nonzero}
   ]]>
  </style>
 </defs>
 <g id="Слой_x0020_1">
  <metadata id="CorelCorpID_0Corel-Layer"/>
  <path class="fil0" d="M38 139c-1,1 -1,2 -1,3 -1,0 -2,1 -4,1l-29 0c-3,0 -4,-2 -4,-4l14 -100c1,-5 2,-10 4,-15 2,-4 5,-8 8,-12 4,-4 8,-7 13,-9 6,-2 12,-3 19,-3l59 0c2,0 3,0 3,1 0,0 1,2 0,4l-3 23c0,2 -1,3 -1,3 -1,1 -2,1 -3,1l-48 0c-3,0 -5,1 -7,2 -2,0 -3,1 -4,2 -1,1 -1,3 -2,4 0,1 -1,3 -1,4l-2 13 52 0c2,0 3,0 3,0 1,1 1,2 0,5l-2 21c-1,3 -3,5 -5,5l-52 0 -7 51z"/>
  <path id="1" class="fil0" d="M159 138c0,2 0,3 -1,4 0,0 -2,1 -4,1l-28 0c-3,0 -5,-2 -4,-5l19 -134c0,-3 2,-4 5,-4l28 0c2,0 4,0 4,1 1,1 1,2 0,3l-19 134z"/>
  <path id="2" class="fil0" d="M307 28c0,3 -2,4 -5,4l-33 0 -15 106c-1,2 -1,3 -2,4 0,0 -1,1 -4,1l-28 0c-3,0 -4,-2 -4,-5l15 -106 -33 0c-3,0 -4,-1 -3,-4l3 -23c0,-2 1,-4 2,-4 0,-1 1,-1 3,-1l104 0c2,0 3,0 3,1 1,0 1,2 1,4l-4 23z"/>
  <path id="3" class="fil1" d="M433 68l-1 0 -10 18 -17 31c-2,3 -4,6 -6,7 -1,1 -4,2 -7,2l-13 0c-3,0 -5,-1 -6,-2 -1,-1 -3,-4 -4,-7l-7 -24 -7 -22 -1 0 -9 68c-1,2 -1,3 -2,3 0,1 -2,1 -3,1l-28 0c-1,0 -2,0 -3,-1 -1,0 -1,-1 -1,-3l18 -123c1,-6 2,-11 5,-13 2,-2 6,-3 11,-3l14 0c4,0 7,1 9,2 2,2 3,4 4,8l12 36 9 35 1 0 22 -37 19 -33c3,-4 5,-7 7,-8 3,-2 6,-3 11,-3l14 0c2,0 4,0 5,1 2,0 3,1 5,2 1,1 1,2 2,4 0,2 0,5 0,8l-18 124c0,2 -1,3 -1,3 -1,1 -2,1 -4,1l-26 0c-1,0 -2,0 -3,-1 -1,0 -1,-1 -1,-3l10 -71z"/>
  <path id="4" class="fil1" d="M593 138c-1,3 -2,5 -5,5l-62 0c-8,0 -14,-1 -19,-4 -5,-2 -8,-5 -10,-9 -3,-4 -4,-8 -5,-12 0,-5 0,-10 1,-14l9 -65c1,-5 2,-10 4,-15 1,-4 4,-8 7,-12 3,-4 7,-7 12,-9 5,-2 11,-3 18,-3l60 0c2,0 3,0 3,1 0,0 0,2 0,4l-3 23c0,2 -1,3 -1,3 -1,1 -2,1 -4,1l-46 0c-2,0 -5,1 -6,2 -2,0 -3,1 -4,2 -1,1 -2,3 -2,4 -1,1 -1,3 -1,4l-1 9 53 0c1,0 2,0 2,0 1,1 1,2 0,5l-3 21c0,2 0,3 -1,4 0,0 -1,1 -3,1l-53 0 -2 15c0,2 0,4 0,6 0,1 1,3 2,3 1,1 2,2 4,2 1,0 3,0 4,0l52 0c1,0 2,0 3,1 0,0 0,2 0,4l-3 23z"/>
 </g>
</svg>
