<?xml version="1.0" encoding="UTF-8"?>
<!DOCTYPE svg PUBLIC "-//W3C//DTD SVG 1.1//EN" "http://www.w3.org/Graphics/SVG/1.1/DTD/svg11.dtd">
<!-- Creator: CorelDRAW X8 -->
<svg xmlns="http://www.w3.org/2000/svg" xml:space="preserve" width="2.8222mm" height="1.9762mm" version="1.1" style="shape-rendering:geometricPrecision; text-rendering:geometricPrecision; image-rendering:optimizeQuality; fill-rule:evenodd; clip-rule:evenodd"
viewBox="0 0 282 198"
 xmlns:xlink="http://www.w3.org/1999/xlink">
 <defs>
  <style type="text/css">
   <![CDATA[
    .fil0 {fill:black;fill-rule:nonzero}
   ]]>
  </style>
 </defs>
 <g id="Слой_x0020_1">
  <metadata id="CorelCorpID_0Corel-Layer"/>
  <path class="fil0" d="M268 85l-254 0c-8,0 -14,6 -14,14 0,8 6,14 14,14l254 0c8,0 14,-6 14,-14 0,-8 -6,-14 -14,-14z"/>
  <path class="fil0" d="M14 28l254 0c8,0 14,-6 14,-14 0,-8 -6,-14 -14,-14l-254 0c-8,0 -14,6 -14,14 0,8 6,14 14,14z"/>
  <path class="fil0" d="M268 169l-254 0c-8,0 -14,7 -14,14 0,8 6,15 14,15l254 0c8,0 14,-7 14,-15 0,-7 -6,-14 -14,-14z"/>
 </g>
</svg>
