<?xml version="1.0" encoding="UTF-8"?>
<!DOCTYPE svg PUBLIC "-//W3C//DTD SVG 1.1//EN" "http://www.w3.org/Graphics/SVG/1.1/DTD/svg11.dtd">
<!-- Creator: CorelDRAW X8 -->
<svg xmlns="http://www.w3.org/2000/svg" xml:space="preserve" width="26.917mm" height="22.2385mm" version="1.1" style="shape-rendering:geometricPrecision; text-rendering:geometricPrecision; image-rendering:optimizeQuality; fill-rule:evenodd; clip-rule:evenodd"
viewBox="0 0 365 301"
 xmlns:xlink="http://www.w3.org/1999/xlink">
 <defs>
  <style type="text/css">
   <![CDATA[
    .fil0 {fill:black;fill-rule:nonzero}
   ]]>
  </style>
 </defs>
 <g id="Слой_x0020_1">
  <metadata id="CorelCorpID_0Corel-Layer"/>
  <g id="_670184688">
   <path class="fil0" d="M221 89c-12,-5 -25,-8 -38,-8l-1 0c-39,0 -71,21 -95,61 -9,16 -16,34 -21,53 -4,19 -7,36 -7,52 0,34 11,54 29,54l189 0c18,0 29,-20 29,-54 0,-33 -10,-75 -30,-108 -14,-22 -31,-40 -55,-50zm65 158c-1,23 -6,35 -9,34l-189 0c-3,1 -9,-11 -9,-34 0,-14 2,-30 6,-47 4,-17 11,-33 20,-48 7,-13 16,-24 28,-34 13,-10 30,-17 49,-17l1 0c18,0 36,7 48,17 13,11 22,21 29,34 9,15 16,32 20,49 4,17 6,32 6,46z"/>
   <path class="fil0" d="M183 146c-17,0 -31,5 -43,17 -11,12 -17,26 -17,42 0,16 6,31 17,42 12,12 26,18 43,18 16,0 30,-6 42,-18 11,-11 17,-26 17,-42 0,-16 -6,-30 -17,-42 -12,-11 -26,-17 -42,-17zm28 87c-8,8 -18,12 -28,12 -11,0 -21,-4 -29,-12 -7,-8 -11,-17 -11,-28 0,-11 4,-20 11,-28 8,-8 18,-12 29,-12 10,0 20,4 28,12 7,8 11,17 11,28 0,11 -4,20 -11,28z"/>
   <path class="fil0" d="M348 48c-11,-11 -25,-20 -43,-27 -36,-14 -80,-21 -127,-21 -36,0 -68,4 -97,12 -28,7 -49,18 -63,32 -12,13 -18,26 -18,42 0,1 0,5 0,6 0,6 0,11 0,15 0,3 1,7 3,13 1,5 4,9 7,12 6,7 16,10 29,10 4,0 7,0 9,0 27,-4 39,-11 44,-22 4,-8 4,-14 4,-25l0 -4c0,-2 1,-3 2,-5 5,-5 16,-9 31,-12 16,-4 33,-5 53,-5 17,0 32,1 46,3 14,3 24,5 31,9 7,3 10,6 10,10l0 3c0,11 0,17 4,26 2,4 4,7 8,10 6,5 19,10 36,12 17,2 30,-1 38,-10 6,-6 9,-18 9,-26 1,-3 1,-8 1,-14l0 -6c0,-14 -6,-27 -17,-38zm-3 44c0,14 -1,23 -5,26 -2,3 -7,5 -14,5 -3,0 -5,-1 -7,-1 -14,-1 -24,-4 -27,-9 -2,-3 -3,-9 -3,-19l0 -3c0,-11 -7,-20 -18,-26 -10,-6 -26,-10 -39,-12 -7,-1 -14,-2 -21,-3 -7,0 -13,-1 -18,-1 -4,0 -7,0 -11,0 -7,0 -14,0 -21,0 -7,1 -15,2 -26,3 -21,3 -41,10 -51,20 -6,6 -8,12 -8,19l0 4c0,7 0,9 -1,14 -1,2 -1,4 -3,5 -3,3 -11,7 -26,8 -11,1 -18,0 -22,-4 -2,-2 -3,-7 -4,-12 0,-2 0,-5 0,-7l0 -6c0,-2 0,-6 0,-7 0,-10 4,-19 12,-28 12,-12 31,-21 57,-28 26,-7 56,-10 89,-10 47,0 86,6 117,19 13,4 23,10 33,17 10,8 17,19 17,30l0 6z"/>
  </g>
 </g>
</svg>
