<?xml version="1.0" encoding="UTF-8"?>
<!DOCTYPE svg PUBLIC "-//W3C//DTD SVG 1.1//EN" "http://www.w3.org/Graphics/SVG/1.1/DTD/svg11.dtd">
<!-- Creator: CorelDRAW X8 -->
<svg xmlns="http://www.w3.org/2000/svg" xml:space="preserve" width="20.8852mm" height="29.6653mm" version="1.1" style="shape-rendering:geometricPrecision; text-rendering:geometricPrecision; image-rendering:optimizeQuality; fill-rule:evenodd; clip-rule:evenodd"
viewBox="0 0 1512 2147"
 xmlns:xlink="http://www.w3.org/1999/xlink">
 <defs>
  <style type="text/css">
   <![CDATA[
    .fil0 {fill:#00D889;fill-rule:nonzero}
   ]]>
  </style>
 </defs>
 <g id="Слой_x0020_1">
  <metadata id="CorelCorpID_0Corel-Layer"/>
  <path class="fil0" d="M728 29c-1,-15 10,-28 25,-29 1,0 2,0 3,0 1,0 2,0 3,0 15,1 26,14 25,29 0,5 -1,10 -1,13 0,2 0,6 0,11l0 1 0 0 0 0 0 0 0 0 0 0 0 0 0 0 0 0c0,78 29,149 75,199 46,51 109,82 179,82 70,0 133,-31 179,-82 47,-50 75,-121 75,-199 0,-5 0,-9 0,-12 0,-3 0,-8 -1,-13 -1,-15 10,-28 25,-29 15,-1 28,10 30,25 0,4 0,9 0,15 1,6 1,11 1,14 0,92 -35,175 -90,236 -23,25 -49,46 -78,62 -10,34 -43,153 -9,289 13,55 54,122 103,202 93,154 214,352 236,614 34,405 -171,679 -171,679 -9,12 -26,15 -38,6 -12,-9 -15,-26 -6,-38 1,-1 194,-258 161,-642l-1 -7 -670 361 0 304c0,15 -12,27 -27,27 -15,0 -27,-12 -27,-27l0 -304 -671 -359 0 5c-33,384 160,641 161,642 9,12 6,29 -6,38 -12,9 -29,6 -38,-6 0,0 -205,-274 -171,-679 22,-262 143,-460 236,-614 48,-80 89,-147 103,-202 33,-136 1,-255 -9,-289 -29,-16 -56,-37 -78,-62 -56,-61 -90,-144 -90,-236 0,-3 0,-8 0,-14 1,-6 1,-11 1,-15 1,-15 15,-26 29,-25 15,1 27,14 25,29 0,5 0,10 0,13 -1,3 -1,7 -1,12 0,78 29,149 76,199 45,51 109,82 179,82 69,0 133,-31 179,-82 46,-50 75,-121 75,-199l0 0 0 0 0 0 0 0 0 0 0 0 0 0 0 0 0 -1 0 0c0,-5 0,-9 0,-11 -1,-3 -1,-8 -1,-13zm717 1358c-36,-214 -138,-382 -219,-516 -51,-84 -94,-155 -110,-217 -28,-113 -14,-216 -1,-276 -25,7 -51,11 -78,11 -85,0 -163,-38 -219,-99 -26,-28 -47,-62 -62,-98 -15,36 -37,70 -63,98 -55,61 -133,99 -218,99 -27,0 -54,-4 -79,-11 14,60 27,163 0,276 -16,62 -59,133 -110,217 -81,134 -183,302 -219,516l1378 0zm-81 55l-1220 0 612 327 608 -327z"/>
 </g>
</svg>
