<?xml version="1.0" encoding="UTF-8"?>
<!DOCTYPE svg PUBLIC "-//W3C//DTD SVG 1.1//EN" "http://www.w3.org/Graphics/SVG/1.1/DTD/svg11.dtd">
<!-- Creator: CorelDRAW X8 -->
<svg xmlns="http://www.w3.org/2000/svg" xml:space="preserve" width="20.3956mm" height="35.8648mm" version="1.1" style="shape-rendering:geometricPrecision; text-rendering:geometricPrecision; image-rendering:optimizeQuality; fill-rule:evenodd; clip-rule:evenodd"
viewBox="0 0 227 400"
 xmlns:xlink="http://www.w3.org/1999/xlink">
 <defs>
  <style type="text/css">
   <![CDATA[
    .fil0 {fill:#00D3FF;fill-rule:nonzero}
   ]]>
  </style>
 </defs>
 <g id="Слой_x0020_1">
  <metadata id="CorelCorpID_0Corel-Layer"/>
  <path class="fil0" d="M77 68l0 0c0,1 1,2 1,3 4,6 9,11 16,14 5,4 12,6 20,6 11,0 21,-5 29,-12 7,-8 12,-18 12,-30 0,-11 -5,-21 -12,-29 -8,-7 -18,-12 -29,-12 -12,0 -22,5 -29,12 -8,8 -13,18 -13,29 0,4 1,7 2,10 0,3 1,6 3,9zm-6 7c-9,5 -35,19 -48,48 -3,6 -6,18 -9,32 -4,20 -6,45 -6,66 1,20 5,36 13,40 1,0 1,0 2,0 6,1 17,-6 17,-7 2,-1 5,0 6,2 1,0 1,1 1,1 1,4 14,84 18,103 2,7 6,17 11,24 4,4 8,7 13,7 5,0 11,-2 15,-5l0 0c3,-3 5,-6 5,-10l0 -105c0,-2 2,-4 5,-4 2,0 4,2 4,4l0 105c0,4 2,7 5,10l0 0c5,3 10,5 15,5 5,0 9,-3 13,-7 6,-7 9,-17 11,-24 4,-19 18,-99 18,-103 0,0 1,-1 1,-1 1,-2 4,-3 6,-2 0,1 11,8 17,7 1,0 2,0 2,0 8,-4 12,-20 13,-40 1,-21 -2,-46 -6,-66 -2,-14 -6,-26 -8,-32 -14,-29 -40,-43 -49,-48 -2,4 -5,7 -7,9 -9,9 -22,15 -35,15 -9,0 -17,-2 -25,-6 -7,-4 -13,-10 -18,-18zm-56 45c15,-32 42,-47 53,-52 -1,-2 -2,-5 -3,-7 0,-4 -1,-8 -1,-12 0,-13 6,-26 15,-35 9,-8 21,-14 35,-14 13,0 26,6 35,14 9,9 14,22 14,35 0,7 -1,13 -3,19 10,5 38,20 52,52 3,7 7,19 9,33 4,21 7,46 6,68 -1,23 -6,42 -17,47 -2,1 -3,1 -4,2 -6,1 -14,-3 -18,-5 -4,19 -14,81 -18,97 -2,8 -6,19 -12,27 -6,6 -12,11 -20,11 -7,-1 -14,-3 -20,-8l0 0c-2,-1 -3,-3 -4,-4 -2,1 -3,3 -5,4l0 0c-6,5 -13,7 -20,8 -8,0 -14,-5 -19,-11 -7,-8 -11,-19 -13,-27 -3,-16 -14,-78 -17,-97 -5,2 -13,6 -19,5 -1,-1 -2,-1 -3,-2 -12,-5 -17,-24 -18,-47 -1,-22 2,-47 6,-68 3,-14 6,-26 9,-33zm172 26c-1,-2 0,-5 1,-6 2,-1 5,0 6,2 0,0 11,18 9,50 -3,31 -19,43 -19,43 -2,1 -5,0 -6,-1 -1,-2 -1,-5 1,-6 0,0 13,-9 15,-37 3,-29 -7,-45 -7,-45zm-154 -4c1,-2 4,-3 6,-2 2,1 2,4 1,6 0,0 -10,16 -7,45 2,28 15,37 15,37 2,1 3,4 1,6 -1,1 -4,2 -5,1 -1,0 -17,-12 -19,-43 -3,-32 8,-50 8,-50z"/>
 </g>
</svg>
